<mxfile host="app.diagrams.net" modified="2021-03-22T01:15:15.340Z" agent="5.0 (Windows NT 10.0; Win64; x64) AppleWebKit/537.36 (KHTML, like Gecko) Chrome/89.0.4389.90 Safari/537.36" etag="nlyYROBGjxTpmQrIweee" version="14.4.9" type="github">
  <diagram id="-vId4_dihkURSBCWrqHt" name="Page-1">
    <mxGraphModel dx="1240" dy="643" grid="1" gridSize="10" guides="1" tooltips="1" connect="1" arrows="1" fold="1" page="1" pageScale="1" pageWidth="827" pageHeight="1169" math="0" shadow="0">
      <root>
        <mxCell id="0" />
        <mxCell id="1" parent="0" />
        <mxCell id="bmYOJD1AAVuo7RJc_W2I-2" value="&lt;h2 style=&quot;font-size: 12px;&quot;&gt;Pedido Solicitado&lt;/h2&gt;" style="ellipse;whiteSpace=wrap;html=1;aspect=fixed;fontSize=12;fillColor=#d5e8d4;strokeColor=#82b366;" vertex="1" parent="1">
          <mxGeometry y="300" width="80" height="80" as="geometry" />
        </mxCell>
        <mxCell id="bmYOJD1AAVuo7RJc_W2I-3" value="" style="endArrow=classic;html=1;" edge="1" parent="1">
          <mxGeometry width="50" height="50" relative="1" as="geometry">
            <mxPoint x="80" y="339.5" as="sourcePoint" />
            <mxPoint x="160" y="339.5" as="targetPoint" />
          </mxGeometry>
        </mxCell>
        <mxCell id="bmYOJD1AAVuo7RJc_W2I-5" value="&lt;br&gt;Endereço esta certo?&lt;br style=&quot;font-size: 13px&quot;&gt;O responsavel esta presente para receber&amp;nbsp; o produto?&lt;br&gt;O entrega permaneceu &lt;br&gt;ativa?" style="rhombus;whiteSpace=wrap;html=1;fontSize=13;fillColor=#f8cecc;strokeColor=#b85450;" vertex="1" parent="1">
          <mxGeometry x="360" y="250" width="190" height="190" as="geometry" />
        </mxCell>
        <mxCell id="bmYOJD1AAVuo7RJc_W2I-6" value="" style="edgeStyle=orthogonalEdgeStyle;rounded=0;orthogonalLoop=1;jettySize=auto;html=1;fontSize=12;" edge="1" parent="1">
          <mxGeometry relative="1" as="geometry">
            <mxPoint x="280" y="339.5" as="sourcePoint" />
            <mxPoint x="360" y="339.5" as="targetPoint" />
          </mxGeometry>
        </mxCell>
        <mxCell id="bmYOJD1AAVuo7RJc_W2I-7" value="Entregador retira o produto&amp;nbsp;" style="rounded=1;whiteSpace=wrap;html=1;" vertex="1" parent="1">
          <mxGeometry x="160" y="300" width="120" height="60" as="geometry" />
        </mxCell>
        <mxCell id="bmYOJD1AAVuo7RJc_W2I-11" value="Sim" style="edgeStyle=orthogonalEdgeStyle;rounded=0;orthogonalLoop=1;jettySize=auto;html=1;fontSize=12;" edge="1" parent="1">
          <mxGeometry relative="1" as="geometry">
            <mxPoint x="550" y="344.50000000000006" as="sourcePoint" />
            <mxPoint x="630" y="344.50000000000006" as="targetPoint" />
            <Array as="points">
              <mxPoint x="560" y="345.00000000000006" />
              <mxPoint x="560" y="345.00000000000006" />
            </Array>
          </mxGeometry>
        </mxCell>
        <mxCell id="bmYOJD1AAVuo7RJc_W2I-12" value="Produto Entregue ao Cliente&amp;nbsp;" style="rounded=1;whiteSpace=wrap;html=1;" vertex="1" parent="1">
          <mxGeometry x="630" y="310" width="120" height="60" as="geometry" />
        </mxCell>
        <mxCell id="bmYOJD1AAVuo7RJc_W2I-14" value="Não" style="edgeStyle=orthogonalEdgeStyle;rounded=0;orthogonalLoop=1;jettySize=auto;html=1;fontSize=12;exitX=0.5;exitY=1;exitDx=0;exitDy=0;entryX=0;entryY=0.5;entryDx=0;entryDy=0;" edge="1" parent="1" source="bmYOJD1AAVuo7RJc_W2I-5" target="bmYOJD1AAVuo7RJc_W2I-17">
          <mxGeometry x="0.6735" relative="1" as="geometry">
            <mxPoint x="450" y="520" as="sourcePoint" />
            <mxPoint x="450" y="490" as="targetPoint" />
            <mxPoint as="offset" />
          </mxGeometry>
        </mxCell>
        <mxCell id="bmYOJD1AAVuo7RJc_W2I-15" value="Não" style="edgeStyle=orthogonalEdgeStyle;rounded=0;orthogonalLoop=1;jettySize=auto;html=1;fontSize=12;exitX=0.5;exitY=0;exitDx=0;exitDy=0;entryX=0;entryY=0.5;entryDx=0;entryDy=0;" edge="1" parent="1" source="bmYOJD1AAVuo7RJc_W2I-5" target="bmYOJD1AAVuo7RJc_W2I-16">
          <mxGeometry x="0.6098" relative="1" as="geometry">
            <mxPoint x="460.0000000000002" y="440" as="sourcePoint" />
            <mxPoint x="450" y="180" as="targetPoint" />
            <mxPoint as="offset" />
          </mxGeometry>
        </mxCell>
        <mxCell id="bmYOJD1AAVuo7RJc_W2I-16" value="&#xa;&#xa;&lt;span style=&quot;color: rgb(0, 0, 0); font-family: helvetica; font-size: 12px; font-style: normal; font-weight: 400; letter-spacing: normal; text-align: center; text-indent: 0px; text-transform: none; word-spacing: 0px; background-color: rgb(248, 249, 250); display: inline; float: none;&quot;&gt;Sistema emite a notificação ao vendedor para que o mesmo possa tentar entrar em contato com o cliente&amp;nbsp;&lt;/span&gt;&#xa;&#xa;" style="rounded=1;whiteSpace=wrap;html=1;" vertex="1" parent="1">
          <mxGeometry x="630" y="170" width="120" height="100" as="geometry" />
        </mxCell>
        <mxCell id="bmYOJD1AAVuo7RJc_W2I-17" value="&lt;p style=&quot;line-height: 120%&quot;&gt;&lt;/p&gt;&lt;div&gt;&lt;span lang=&quot;ES-CO&quot; class=&quot;TextRun  BCX0 SCXW231316888&quot; style=&quot;margin: 0px ; padding: 0px ; line-height: 24.8208px&quot;&gt;&lt;span class=&quot;NormalTextRun  BCX0 SCXW231316888&quot; style=&quot;margin: 0px ; padding: 0px ; line-height: 120%&quot;&gt;Sistema emite a notificaç&lt;/span&gt;&lt;span class=&quot;NormalTextRun  BCX0 SCXW231316888&quot; style=&quot;margin: 0px ; padding: 0px ; background-color: rgb(248 , 249 , 250) ; line-height: 120%&quot;&gt;ão ao vendedor e cancela a emissão/separação do/s produto/s&lt;/span&gt;&lt;/span&gt;&lt;/div&gt;&lt;div style=&quot;text-align: left&quot;&gt;&lt;br&gt;&lt;/div&gt;&lt;p&gt;&lt;/p&gt;" style="rounded=1;whiteSpace=wrap;html=1;" vertex="1" parent="1">
          <mxGeometry x="630" y="440" width="120" height="140" as="geometry" />
        </mxCell>
        <mxCell id="bmYOJD1AAVuo7RJc_W2I-25" value="Conseguiu efetivar &lt;br&gt;a comunicação com&lt;br&gt;&amp;nbsp;o cliente?" style="rhombus;whiteSpace=wrap;html=1;fillColor=#f8cecc;strokeColor=#b85450;" vertex="1" parent="1">
          <mxGeometry x="820" y="153.75" width="130" height="132.5" as="geometry" />
        </mxCell>
        <mxCell id="bmYOJD1AAVuo7RJc_W2I-26" value="Sim" style="edgeStyle=orthogonalEdgeStyle;rounded=0;orthogonalLoop=1;jettySize=auto;html=1;fontSize=12;exitX=1;exitY=0.5;exitDx=0;exitDy=0;" edge="1" parent="1" source="bmYOJD1AAVuo7RJc_W2I-25">
          <mxGeometry relative="1" as="geometry">
            <mxPoint x="760" y="230" as="sourcePoint" />
            <mxPoint x="1030" y="220" as="targetPoint" />
            <mxPoint as="offset" />
          </mxGeometry>
        </mxCell>
        <mxCell id="bmYOJD1AAVuo7RJc_W2I-28" value="Não" style="endArrow=classic;html=1;exitX=0.5;exitY=0;exitDx=0;exitDy=0;entryX=0;entryY=0.5;entryDx=0;entryDy=0;" edge="1" parent="1" source="bmYOJD1AAVuo7RJc_W2I-25" target="bmYOJD1AAVuo7RJc_W2I-30">
          <mxGeometry x="0.6168" width="50" height="50" relative="1" as="geometry">
            <mxPoint x="810" y="330" as="sourcePoint" />
            <mxPoint x="885" y="80" as="targetPoint" />
            <Array as="points">
              <mxPoint x="885" y="90" />
              <mxPoint x="990" y="90" />
            </Array>
            <mxPoint as="offset" />
          </mxGeometry>
        </mxCell>
        <mxCell id="bmYOJD1AAVuo7RJc_W2I-29" value="Remarca o dia da entrega para efetivar a mesma" style="rounded=1;whiteSpace=wrap;html=1;" vertex="1" parent="1">
          <mxGeometry x="1030" y="190" width="120" height="60" as="geometry" />
        </mxCell>
        <mxCell id="bmYOJD1AAVuo7RJc_W2I-30" value="Cancela e entrega e é cobrada uma taxa de 20% sob o valor final como multa&amp;nbsp; por negligencia com o compormisso com a empresa" style="rounded=1;whiteSpace=wrap;html=1;" vertex="1" parent="1">
          <mxGeometry x="1030" y="30" width="130" height="120" as="geometry" />
        </mxCell>
        <mxCell id="bmYOJD1AAVuo7RJc_W2I-31" value="" style="endArrow=classic;html=1;exitX=1;exitY=0.5;exitDx=0;exitDy=0;entryX=0;entryY=0.5;entryDx=0;entryDy=0;" edge="1" parent="1" source="bmYOJD1AAVuo7RJc_W2I-16" target="bmYOJD1AAVuo7RJc_W2I-25">
          <mxGeometry width="50" height="50" relative="1" as="geometry">
            <mxPoint x="860" y="160" as="sourcePoint" />
            <mxPoint x="910" y="110" as="targetPoint" />
          </mxGeometry>
        </mxCell>
        <mxCell id="bmYOJD1AAVuo7RJc_W2I-33" value="" style="endArrow=classic;html=1;exitX=1;exitY=0.5;exitDx=0;exitDy=0;entryX=0.025;entryY=0.325;entryDx=0;entryDy=0;entryPerimeter=0;" edge="1" parent="1" source="bmYOJD1AAVuo7RJc_W2I-12">
          <mxGeometry width="50" height="50" relative="1" as="geometry">
            <mxPoint x="1010" y="370" as="sourcePoint" />
            <mxPoint x="1252" y="336" as="targetPoint" />
          </mxGeometry>
        </mxCell>
        <mxCell id="bmYOJD1AAVuo7RJc_W2I-34" value="&lt;h2&gt;FIM&lt;/h2&gt;" style="ellipse;whiteSpace=wrap;html=1;aspect=fixed;strokeColor=#b85450;fillColor=#FF6969;" vertex="1" parent="1">
          <mxGeometry x="1250" y="300" width="80" height="80" as="geometry" />
        </mxCell>
        <mxCell id="bmYOJD1AAVuo7RJc_W2I-35" value="" style="endArrow=classic;html=1;exitX=1;exitY=0.5;exitDx=0;exitDy=0;entryX=0.5;entryY=1;entryDx=0;entryDy=0;" edge="1" parent="1" source="bmYOJD1AAVuo7RJc_W2I-17" target="bmYOJD1AAVuo7RJc_W2I-34">
          <mxGeometry width="50" height="50" relative="1" as="geometry">
            <mxPoint x="1010" y="370" as="sourcePoint" />
            <mxPoint x="1060" y="320" as="targetPoint" />
            <Array as="points">
              <mxPoint x="1290" y="510" />
            </Array>
          </mxGeometry>
        </mxCell>
        <mxCell id="bmYOJD1AAVuo7RJc_W2I-36" value="" style="endArrow=classic;html=1;exitX=1;exitY=0.5;exitDx=0;exitDy=0;entryX=0.375;entryY=0;entryDx=0;entryDy=0;entryPerimeter=0;" edge="1" parent="1" source="bmYOJD1AAVuo7RJc_W2I-29" target="bmYOJD1AAVuo7RJc_W2I-34">
          <mxGeometry width="50" height="50" relative="1" as="geometry">
            <mxPoint x="1010" y="230" as="sourcePoint" />
            <mxPoint x="1060" y="180" as="targetPoint" />
            <Array as="points">
              <mxPoint x="1280" y="220" />
            </Array>
          </mxGeometry>
        </mxCell>
        <mxCell id="bmYOJD1AAVuo7RJc_W2I-37" value="" style="endArrow=classic;html=1;exitX=1;exitY=0.5;exitDx=0;exitDy=0;" edge="1" parent="1" source="bmYOJD1AAVuo7RJc_W2I-30">
          <mxGeometry width="50" height="50" relative="1" as="geometry">
            <mxPoint x="1010" y="230" as="sourcePoint" />
            <mxPoint x="1280" y="300" as="targetPoint" />
            <Array as="points">
              <mxPoint x="1280" y="90" />
            </Array>
          </mxGeometry>
        </mxCell>
      </root>
    </mxGraphModel>
  </diagram>
</mxfile>
